<svg width="29" height="35" viewBox="0 0 29 35" fill="none" xmlns="http://www.w3.org/2000/svg">
<path d="M9.15118 24.8012L3.34561 27.9234C3.00492 28.1065 0.31186 29.1996 0.0269775 29.445C5.4142 33.5016 10.1688 34.4054 14.9428 34.4054C19.6815 34.4054 24.895 31.8254 28.2702 29.05C27.9589 28.7908 26.7485 28.1485 26.3741 27.9647L20.1573 24.9004C19.3541 24.5044 18.8467 23.6951 18.8467 22.8097V20.4049C19.0215 20.2088 19.2212 19.9568 19.4348 19.6593C20.2821 18.4794 20.9231 17.1814 21.3673 15.8197C22.1647 15.5772 22.7521 14.8512 22.7521 13.9883V11.4213C22.7521 10.8567 22.4973 10.3521 22.1016 9.99884V6.28812C22.1016 6.28812 22.8747 0.51355 14.9428 0.51355C7.01089 0.51355 7.78404 6.28812 7.78404 6.28812V9.99884C7.38756 10.3521 7.13351 10.8567 7.13351 11.4213V13.9883C7.13351 14.6644 7.49402 15.2594 8.03368 15.6033C8.68421 18.3954 10.3876 20.4049 10.3876 20.4049V22.7504C10.3869 23.6046 9.91258 24.3915 9.15118 24.8012Z" fill="white"/>
</svg>
